# xmcd
#
# Track frame offsets: 
#        150
#        16909
#        37238
#        52097
#        68908
#        84782
#        101142
#        118290
#        134786
#
# Disc length: 2010 seconds
#
# Revision: 0
# Processed by: cddbd v1.5.2PL0 Copyright (c) Steve Scherf et al.
# Submitted via: ExactAudioCopy v1.0b6
#
DISCID=8407d809
DTITLE=BKO - Mali foli coura
DYEAR=2017
DGENRE=Afrique
TTITLE0=Tangwanana 
TTITLE1=Salia
TTITLE2=Strange koreduga 
TTITLE3=Dirty donso
TTITLE4=Mali liberela
TTITLE5=BKO nana
TTITLE6=Rougeot
TTITLE7=From Ségou to nightmare 
TTITLE8=Mon amour
EXTD=
EXTT0=
EXTT1=
EXTT2=
EXTT3=
EXTT4=
EXTT5=
EXTT6=
EXTT7=
EXTT8=
PLAYORDER=
